<?xml version="1.0" standalone="no"?>
<!DOCTYPE svg PUBLIC "-//W3C//DTD SVG 20010904//EN"
 "http://www.w3.org/TR/2001/REC-SVG-20010904/DTD/svg10.dtd">
<svg version="1.0" xmlns="http://www.w3.org/2000/svg"
 width="700.000000pt" height="700.000000pt" viewBox="0 0 700.000000 700.000000"
 preserveAspectRatio="xMidYMid meet">
<metadata>
Created by potrace 1.11, written by Peter Selinger 2001-2013
</metadata>
<g transform="translate(0.000000,700.000000) scale(0.100000,-0.100000)"
fill="#000000" stroke="none">
<path d="M4907 6553 c-138 -31 -295 -148 -361 -268 -88 -160 -96 -367 -21
-530 28 -61 102 -156 156 -198 103 -81 218 -121 348 -121 227 1 432 158 504
389 53 167 34 343 -51 484 -40 66 -116 151 -135 151 -6 0 -18 7 -27 15 -21 19
-156 74 -198 81 -70 11 -159 10 -215 -3z"/>
<path d="M2050 6553 c-139 -15 -241 -63 -335 -157 -115 -116 -167 -243 -167
-411 -1 -154 40 -264 138 -373 182 -203 464 -245 681 -103 136 89 229 218 257
354 14 69 12 200 -5 272 -40 174 -169 321 -338 386 -66 24 -167 39 -231 32z"/>
<path d="M2427 5288 c-60 -15 -129 -29 -155 -31 -26 -2 -65 -15 -87 -28 -21
-13 -48 -25 -58 -26 -48 -8 -179 -58 -276 -107 -222 -112 -296 -151 -301 -157
-3 -4 -22 -14 -42 -22 -31 -13 -106 -64 -128 -87 -3 -3 -25 -21 -50 -40 -192
-146 -368 -340 -501 -550 -30 -47 -60 -95 -67 -105 -39 -62 -166 -335 -197
-424 -34 -100 -68 -223 -79 -286 -3 -16 -10 -55 -16 -85 -20 -102 -25 -174
-25 -380 0 -181 8 -335 20 -395 3 -11 7 -37 10 -58 39 -284 231 -751 405 -991
39 -53 70 -99 70 -104 0 -9 44 -56 86 -92 16 -14 49 -50 74 -80 144 -172 441
-425 605 -516 11 -6 49 -28 85 -50 36 -21 83 -48 104 -59 21 -10 46 -29 56
-42 10 -13 26 -23 37 -23 10 0 23 -4 29 -9 5 -6 44 -26 86 -45 70 -32 79 -34
93 -20 22 22 19 32 -16 62 -44 38 -108 124 -159 212 -23 41 -57 100 -75 130
-148 248 -260 557 -301 830 -3 19 -7 46 -10 60 -2 14 -7 54 -10 90 -3 36 -9
91 -13 123 -9 64 -7 403 2 457 3 19 9 58 12 85 46 374 253 878 493 1195 82
108 296 321 422 420 200 158 535 335 768 405 47 15 45 15 212 -21 248 -52 542
-170 710 -284 31 -20 71 -45 90 -55 47 -24 209 -144 295 -219 97 -84 189 -184
228 -246 12 -19 33 -48 48 -65 101 -114 219 -302 287 -456 23 -53 42 -99 42
-103 0 -3 9 -25 20 -49 26 -56 84 -233 110 -335 56 -221 69 -360 65 -667 -2
-137 -6 -262 -9 -277 -3 -16 -8 -38 -10 -50 -3 -13 -7 -34 -10 -48 -3 -14 -11
-50 -17 -80 -51 -253 -93 -374 -216 -620 -74 -149 -214 -380 -235 -388 -4 -2
-8 -11 -8 -19 0 -8 -18 -32 -39 -53 -22 -21 -45 -48 -51 -60 -11 -20 -10 -21
12 -15 12 3 50 19 83 35 33 16 119 57 190 90 108 51 242 122 340 183 119 72
309 220 430 332 67 62 271 315 327 405 243 389 344 775 342 1305 0 217 -9 458
-18 495 -3 14 -7 39 -10 55 -41 269 -160 584 -313 825 -205 324 -458 567 -819
787 -50 31 -212 107 -291 137 -193 73 -405 125 -583 144 -138 14 -552 6 -655
-13 -167 -30 -241 -50 -440 -117 -326 -110 -651 -288 -902 -494 -36 -30 -83
-52 -83 -39 0 14 238 191 353 263 104 66 362 202 382 202 3 0 24 8 48 19 80
35 102 43 214 81 61 21 114 35 117 32 3 -3 6 -1 6 5 0 10 -192 72 -302 97
-172 39 -267 48 -512 50 -199 1 -217 -1 -319 -26z"/>
<path d="M3270 3583 c-280 -44 -473 -160 -641 -386 -134 -179 -268 -466 -315
-672 -75 -334 -61 -652 44 -1007 96 -320 321 -546 638 -639 66 -20 102 -23
224 -23 167 0 221 11 365 79 149 70 244 146 399 318 43 48 83 87 88 87 15 0
31 -20 73 -89 88 -146 226 -298 308 -340 162 -82 326 -7 488 224 52 74 89 136
89 150 0 11 -61 5 -107 -11 -26 -9 -76 -16 -110 -16 -181 1 -275 139 -328 482
-30 197 -20 830 20 1280 12 134 16 167 20 200 2 19 7 58 10 85 3 28 10 86 17
129 10 72 9 80 -7 92 -34 25 -138 -18 -203 -84 -51 -53 -138 -197 -183 -304
-18 -43 -36 -78 -40 -78 -4 0 -45 51 -91 113 -47 61 -95 123 -107 137 -126
146 -262 236 -406 266 -56 12 -188 16 -245 7z m220 -215 c140 -26 248 -124
335 -303 56 -117 101 -243 109 -312 3 -22 7 -52 10 -65 3 -12 8 -57 12 -98 3
-41 8 -88 10 -105 6 -49 6 -336 0 -390 -25 -221 -78 -424 -148 -570 -160 -336
-506 -446 -771 -246 -146 109 -275 355 -322 611 -4 19 -8 42 -10 50 -8 39 -18
193 -18 265 1 466 118 804 352 1017 56 51 156 113 198 123 133 33 169 37 243
23z"/>
</g>
</svg>
