<svg version="1.1" id="Layer_1" xmlns="http://www.w3.org/2000/svg" x="0" y="0" width="94" height="90" xml:space="preserve"><style>.st0,.st1,.st2{fill-rule:evenodd;clip-rule:evenodd;fill:#2ab8dd}.st1,.st2{fill:#e52526}.st2{fill:#005ea6}</style><path class="st0" d="M35.7 35.5c3-2.5 6.3-4.2 10-5.2-2.3-.8-4.6-1.3-7-1.2h-2.1c-.9.2-1.7.5-2.7.5-.4.4-1 .5-1.5.6-1.4.5-2.7 1.2-4 1.9-.1.1-.3.1-.4.1 0 .3-.3.3-.5.3-1.5 1.1-3.1 2.3-4.3 3.7-1.4 1.7-2.5 3.5-3.4 5.5-.7 1.7-1.2 3.5-1.4 5.3-.2 2.3-.1 4.7.4 7 .5 2.1 1.4 4 2.4 5.9.5 1 1.3 1.8 1.9 2.8.7.4 1.1 1.1 1.6 1.6 1.8 1.9 3.9 3.4 6.2 4.6.3.1.6.3.8.6.5.1.9.4 1.3.6.3-.1.6.4.8.1.2-.3-.2-.5-.4-.7-.7-.7-1.2-1.6-1.7-2.5-1.7-2.6-2.7-5.7-3-9-.3-2.8-.1-5.6.8-8.4.5-1.5 1.1-2.8 1.8-4.2 1.1-2.1 2.6-3.9 4.4-5.4 1.1-1 2.3-1.8 3.6-2.5 1.6-.9 3.3-1.6 5.1-2.1-2.9-.6-5.8-.4-8.7.1zM32.7 28.2c2.5 0 5-2.3 4.8-4.8.1-2.9-2.3-4.9-4.8-4.8-2.6 0-4.7 2.1-4.7 4.7-.2 2.5 2 4.8 4.7 4.9z"/><path class="st1" d="M7.3 76.5c-.6 0-1 0-.8.8-1.9-2-5.2-1.3-6.3 1.3-.1.3-.2.5-.4.7v2.5c.2.3.2.5.3.8.6 1.8 2.1 2.8 3.9 2.8 1 0 1.7-.4 2.4-1.1.1.9.1.9.9.9h.6c.9 0 .9 0 .9-.9v-6.2c0-1.6 0-1.6-1.5-1.6zm-2.8 6.7c-1.3 0-2.3-1.1-2.2-2.5 0-1.3 1-2.3 2.2-2.3 1.3 0 2.1 1 2.1 2.4-.1 1.4-.9 2.4-2.1 2.4zM73.1 76.5c-.5 0-.8.1-1 .6-.6 1.1-1.2 2.1-2 3.1-.4-.7-.9-1.2-1.1-1.9-.6-1.6-1.7-2.1-3.3-1.8h-.1c-.4 0-.5.1-.3.5 1 1.9 1.9 3.8 2.8 5.7.3.6.7 1.1.7 1.7v5.4h2.7c-.2-1.6 0-3.2-.1-4.8 0-.6.1-1.1.4-1.7.4-.7.8-1.5 1.1-2.3.7-1.5 1.5-3 2.3-4.6-.8.1-1.5.1-2.1.1zM62.3 76.5c-.3 0-.4.2-.5.4-.5.8-.9 1.7-1.6 2.3.1.4-.3.6-.4 1-.3-.4-.6-.8-.8-1.3-.6-.8-1-1.6-1.5-2.4-.9-.1-1.9-.1-2.8 0 .2.5.5 1.1.7 1.6 1.1 1.9 2 3.9 3 5.9.1.2.1.5.1.7v5.1H61c0-.8.1-1.6 0-2.3-.2-2.2.1-4.2 1.4-6.1.1-.1.1-.2.2-.3.7-1.5 1.5-3 2.3-4.6h-2.6zM93.3 78.3c-.7-1.9-3-2.5-4.5-1.7-.2.1-.5.4-.6-.1 0-.1-.2-.1-.3-.1-.8 0-1.6-.1-2.4.1V84.7c0 .3 0 .5.4.5.5 0 1.1-.1 1.6 0 .6.1.8-.1.8-.8v-4.3c0-.7.7-1.2 1.6-1.2.7 0 1 .3 1 1.1v4.6c0 .5.1.6.6.6h2.1v-6.6c-.2-.1-.3-.2-.3-.3zM85.4 76.4zM40.1 6.5c.3.1.4-.1.4-.4 0-.5-.1-1.1-.1-1.6v-.4c.3-.4.7-.4 1 0 .4.6.7 1.3 1.1 2 .5.5 1.1 0 1.7.2-.5-.8-.9-1.5-1.4-2.2-.2-.3-.2-.6.1-.9 1-.9.7-2.4-.4-3.1-.1-.1-.3 0-.3-.3h-1.5c-.4.2-1 .1-1.5.2-.2 0-.4.1-.4.3.1 1.9.2 3.9.4 5.8.1.7.6.3.9.4zm.2-5.3c.1-.2 1.4-.2 1.7-.1.3.2.4.5.3.8-.1.6-.6.6-1.1.7H41c-.2-.1-.6.2-.6-.2-.1-.4-.3-.8-.1-1.2zM58.2 63.8c.1-.2.3-.4.2-.5-.1-.2-.4 0-.6 0-.6.2-1.1.3-1.7.2-1.2-.2-1.7-1.2-2-2.2-.8-2.7-.6-5.6-.5-8.4.1-2.8.3-5.5.7-8.2.1-.5-.1-.6-.5-.5-1 .2-1.6.9-2.1 1.7-.5.7-.8 1.5-1.2 2.4-.8-1-1.5-2-2.4-2.9-1.2-1.1-2.5-1.7-4.1-1.7-3 .1-5.3 1.4-6.9 3.8-3 4.4-3.6 9.2-1.9 14.2 1.6 4.6 6.9 6.6 11 4.4 1.4-.7 2.5-1.8 3.5-3 .3-.3.4-.4.7 0 .6 1 1.3 2 2.2 2.8 1.3 1.2 2.6 1.1 3.9 0 .7-.6 1.2-1.4 1.7-2.1zm-10-3.3c-.3.9-.8 1.7-1.5 2.4-2 2-5.1 1.7-6.8-.8-1.6-2.4-2-5-1.8-7.8.1-2.4.7-4.8 2.3-6.7.9-1.1 2-1.8 3.4-2 1.4-.2 2.5.3 3.4 1.4.5.6.8 1.3 1.1 2 .3.7.6 1.5.6 2.3.1.1.1.2.1.4.4 3.1.3 6-.8 8.8zM27.2 76.5c0-2-.9-3.3-2.6-3.7-1.2-.3-1.5-.1-1.8 1-.1.2-.1.4-.2.6-.3 1-.3 1 .7.9.8-.1 1.3.2 1.3.8.1.5 0 .9 0 1.4-2.1-.9-2.7-.8-4.2.3-.7.9-.9 2-.8 3.1v3.5c0 .5.2.7.6.6h1.3c.5 0 .6-.1.6-.6v-2.9c0-.3 0-.5.1-.8.1-.9.5-1.4 1.3-1.3.7 0 1.1.6 1.1 1.7v2.3c0 1.5 0 1.5 1.6 1.5h.8c.2-.2.1-.4.1-.6.1-2.5.1-5.1.1-7.8zM18.1 76.2c0-2-1.3-3.4-3.2-3.4-.6 0-.9.2-1 .8 0 .1-.1.3-.2.4v.2c-.1.4-.2.9-.3 1.3h.1c.3-.2.7-.2 1-.2.8 0 1.1.3 1.1 1.1 0 .4.1.8-.1 1.2-.6-.4-1.3-.7-2.1-.7-1.3.1-2.4.9-2.8 2.2-.1.2-.1.5-.2.7v4.4c.1.3-.1.7.1 1h.4c.5 0 .9-.1 1.4 0 .6.1.7-.2.7-.7 0-1.2-.1-2.5.1-3.7.1-1 .9-1.5 1.8-1.1.6.3.6.8.6 1.3.1 1.2.1 2.4 0 3.5 0 .5.1.7.6.6.6-.1 1.4.3 1.8-.1.3-.4.1-1.1.1-1.7.1-2.4.1-4.8.1-7.1zM46.3 76c0-2.1-1.5-3.3-3.5-3.3-.3 0-.5.1-.6.4-.2.7-.5 1.4-.7 2.2.8 0 1.6-.4 2.1.4.4.5.2 1.2.2 1.9-1.5-1-2.8-.9-4.1.2l-.1.1c-.7.9-.9 2-.8 3.1v3.6c0 .4.1.5.5.5h2.1v-.3-3.6c0-.3.1-.7.2-1 .2-.5.6-.8 1.1-.8.5 0 .9.3 1 .8.1.4.2.8.2 1.2V85H46c.3 0 .5-.1.5-.4-.2-2.8-.1-5.7-.2-8.6zM34.5 85.1c0-.1 0-.1 0 0zM37.2 79.4c0-1.1-.5-1.9-1.3-2.6-1.2-.6-2.5-.8-3.7-.1-.1 0-.2.1-.2 0-.7-.8-1.7-.2-2.5-.4-.3-.1-.3.2-.3.4v7.9c0 .6.4.4.7.5h.4c.5-.1 1.3.2 1.6-.1.3-.3.1-1 .1-1.6v-3.1c0-.7.2-1.1.9-1.3h.1c.4-.2.8-.3 1.2 0 .5.2.4.7.4 1.1v5H37c.3 0 .4-.2.4-.4-.2-1.8-.2-3.5-.2-5.3zM81.7 76.5c-.3 0-.5.1-.4.5v3.7c0 .5 0 1.1-.2 1.6-.3.7-.8 1-1.5.9-.7-.1-1.1-.5-1.3-1.1-.2-.5-.1-1.1-.1-1.7v-3.9h-2.3c.1 1.9-.1 3.7.1 5.6.3 2.1 1.8 3.3 4.1 3.2 1.9-.1 3.3-1.5 3.4-3.5.1-1.2 0-2.4 0-3.7 0-1.7 0-1.7-1.8-1.6zM53.1 81.3zM52.6 83.6c-1.1.1-2.2-.7-2.5-1.7-.1-.3 0-.5.4-.5h2.7s0-.1.1-.1V81c-.1-1.1-.1-1.1-1.2-1.1h-1.3c-.6 0-.6-.1-.4-.6.5-1.1 2-1.6 3.1-1 .2.1.4.3.7.5v-1.6c0-.3-.3-.4-.5-.5-1.2-.5-2.3-.5-3.5 0l-.6.3-.1.1-1.2 1.2c-.8 1.7-.8 3.3-.1 5 .1 0 .1.1.1.1.7 1 1.6 1.7 2.8 2h1.6c1.8-.7 1.6-.2 1.5-2.4-.6.2-1 .5-1.6.6zM48.2 78.2zM29 8l.2.2c.2.1.4.2.5.2 0-.1.1-.1.1-.1.1 0 .2 0 .2-.1.3-.2.4-.5.4-.8v-2c.4.9.8 1.7 1.1 2.5.2.6.5.3.8.2.3-.1.7-.2.4-.7-.1-.2-.3-.5-.3-.8v-.1c-.8-1.2-1.2-2.6-1.8-3.8-.2-.7-.2-.7-1-.3-.3.2-.3.4-.3.7v3.6c-.9-.8-1.6-1.6-2.4-2.3-.5-.5-.9-.5-1.4-.1-.4.3 0 .6.1.9.7 1.6 1.4 3.2 2 4.8v.1c0 .1.1.1.1.2h.1c.1 0 .2 0 .3-.1.9-.5.9-.5.5-1.5-.2-.5-.5-1-.7-1.5 0-.1-.1-.1-.2-.3.7.3 1 .6 1.3 1.1zM20.3 15.6c.3-.3 0-.5-.1-.7-1.2-1.3-2.5-2.5-3.7-3.8l-.2-.2-.3-.3c-.2.4-.7.6-.8 1 .5.5 1 1 1.5 1.4l.1.1c.1.7-.7.9-1 1.3-.2.3-.4.2-.6 0-.4-.4-.8-.8-1.1-1.2-.3-.4-.6-.4-.9 0-.1.2-.3.3-.4.4v.3c.8.7 1.5 1.4 2.1 2.2l.2.2 1.8 1.8c.3.3.5.3.7 0 .2-.2.6-.4.5-.8l-1.5-1.5c-.2-.2-.2-.4 0-.5.2-.2.5-.4.7-.6.4-.5.8-.5 1.1.1l.1.1c.2.2.4.4.6.5.4.8.4.8 1.2.2-.1 0 0 0 0 0zM33.9 6.6c0 .1.1.2.1.3v.4c.1.1.1.4.4.4h.3c1.2-.4 2.5-.6 3.7-.8v-.5c0-.7-.3-.8-.9-.6-.5.2-1.1.3-1.7.4-.2 0-.4.2-.5-.1-.4-.8-.2-1.3.6-1.4l1.2-.3c.4 0 .4-.2.4-.5-.1-.4-.2-.8-.8-.6-.3.1-.6.1-1 .2-1.1.2-.9.3-1.1-.7-.1-.4 0-.5.4-.6.7-.1 1.3-.3 2-.4.6-.1.4-.5.3-.8 0-.3-.1-.5-.6-.4-1.1.3-2.2.5-3.3.7-.4.1-.5.2-.4.6.3 1.5.6 3.1.9 4.7zM10.3 28.6c.4 0 1-.9.8-1.2-.1-.2-.2-.1-.3-.1H4.7c-.3 0-.4.1-.6.4-.2.5 0 .9.4 1.2C5.8 29.9 7 31 8.2 32c.3.2.6.5 1 .7.3-.3.3-.7.5-1.1.1-.3-.2-.4-.3-.5-.6-.4-.8-.8-.4-1.5.3-1 .2-1 1.3-1zm-2.3.5c-.3.7-.3.7-.9.2-.3-.2-.6-.5-.9-.7l-.2-.2c.6 0 1.1.1 1.6.1.5-.1.6.1.4.6zM9.2 19c.4.2.6.4.9-.1.2-.3.3-.6.6-.8.1-.3.3-.5.5-.8.3.4.4.9.6 1.3.4 1 .8 1.9 1.1 2.9.1.2.1.3.2.5.5.7.7.6 1.2 0 .4-.5.8-1.1 1.3-1.6 0-.1 0-.1.1-.1 0-.1.1-.2.1-.2.7-.9.7-.9-.2-1.6-.6.4-.8 1-1.3 1.5-.4.5-.5.5-.7-.1-.5-1.4-1.1-2.8-1.6-4.1-.2-.2-.5-.4-.7-.5h-.1c-.7 1-1.4 2-2.2 2.9-.1.4-.2.6.2.8zM6.7 24.2c1.4.7 2.9 1.5 4.3 2.3.2.1.4.3.7.3.5-.9.8-1.9 1.6-2.7.1-.1.1-.2.2-.3v-.3c.4-.5 0-.7-.4-.9-.3-.2-.5-.1-.6.2-.3.5-.6 1-.9 1.6-.3.8-.3.8-1.1.3-.1 0-.1 0-.2-.1-1-.5-2-1.1-3-1.6-.3-.1-.5-.4-.8-.3 0 .1 0 .1-.1.1 0 .1 0 .2-.2.3-.4.6-.1.8.5 1.1zM6.2 23.1zM79.2 73.8c0 .5.1.7.7.6.9-.1.9 0 .9-.9v-.9-.4c0-1.2 0-1.2-1.2-1.3-.7 0-.7.3-.6.7.1.8.2 1.5.2 2.2zM21.2 14.2c.1.2.3.3.5.1.9-.7 1.8-1.3 2.7-2 .4-.4.4-.5.1-.9-.4-.5-.6-.1-.9 0-.4.2-.7.5-1 .7-.8.6-.8.6-1.4-.3-.2-.3-.2-.4.1-.6.4-.3.8-.6 1.3-.9.5-.3.4-.5.1-.9-.3-.4-.5-.3-.8-.1-.3.2-.5.4-.8.6-.9.6-.6.7-1.3-.2-.2-.3-.2-.5.1-.7.6-.4 1.1-.8 1.7-1.2.4-.3.3-.5 0-.7-.2-.2-.3-.6-.8-.3-.6.5-1.3.9-1.9 1.4-.3.2-.6.4-1 .6-.2.2-.3.4-.1.7 1.2 1.6 2.3 3.1 3.4 4.7zM25.4 11.3c.1.2.2.4.4.2.3-.2.7-.3.9-.6 0-.1-.1-.1-.1-.2-1-1.7-1.9-3.4-2.9-5.1-.3-.5-.6.1-.9.2-.3.1-.4.2-.2.6.9 1.6 1.9 3.2 2.8 4.9z"/><g><path class="st2" d="M47.8 6.4c.3.1.5.1.6-.4 0-.6.2-1.2.2-1.8 0-.3.1-.5.4-.5h.1c.5.3 1.2-.1 1.4.4.2.4-.1 1-.1 1.6v.2c0 .2-.3.6.1.7.3.1.7.2 1.1.1.2 0 .1-.2.1-.3v-.1c.4-1.9.5-3.7.8-5.6 0-.2 0-.3-.2-.4-.7-.3-1.2-.1-1.3.7v.5c-.1 1.4-.1 1.4-1.5 1.2-.5-.1-.7-.2-.6-.8.1-.5 0-1 .1-1.5.1-.4-.1-.6-.4-.7h-.8c-.3 2-.5 4-.8 6.1-.1.8.5.5.8.6zM73 13.9c.2-.9.6-1.7.9-2.6.1-.3.3-.6-.1-1-.4-.3-.7-.4-1.1-.1 0 0-.1 0-.2.1-1.7 1-3.3 1.9-5 2.9v-2.5c.1-2 .1-2 2-2.5h.1c.3-.2.7-.2.9-.5 0-.1-.1-.1-.1-.2-.7-.6-1.5-.5-2.3-.1-.6.3-1.2.5-2 .7.4-.7.7-1.2 1.1-1.8.1-.2.2-.5.1-.7-.2-.3-.5-.4-.8-.5-.2-.1-.2.2-.3.3-.4.6-.8 1.3-1.3 1.9-.1.3-.3.6-.5.8-.1.2-.1.3-.2.5h.5c-.1.1-.3.1-.5 0-.2.3-.2.3-.2.4-.3.4-.5.9-.8 1.3-.3.4-.2.5.2.7.2.1.5.3.7.4.1 0 .1-.1.2-.1.3-.5.5-.9.8-1.4.3-.5.8-.3 1.3-.5 0 .6 0 1.1-.1 1.6V12.7c.7.4 1.3.7 1.8 1.3.3.4.6.3.9.1.8-.5 1.6-1 2.4-1.4 0 0 .1 0 .1-.1.3-.3.7-.5 1.1-.6 0 0 0-.1.1-.1 0 0-.1 0-.1.1-.3 1.3-.9 2.4-1.5 3.6-.3.6-.2.9.3 1.3.4.3.5.3.7-.2.2-1 .6-1.9.9-2.8zM82.5 34.8c-.2 0-.4 0-.5.3-.1.7.3 1.2 1 1 .2 0 .4 0 .7-.1.5-.2.8.1 1.2.3.3.2.2.3 0 .5L83.4 38c-.9.7-.9 1-.4 2.1 1-.8 1.9-1.6 2.8-2.4.4-.4.7-.4 1.1-.1.7.4 1.5.8 2.3 1.3 0-1.1-.2-1.8-1.3-2.1-.7-.2-1.2-.7-2-1.1.8-.3 1.4-.4 2.1-.4.6-.1.4-.4.4-.8-.1-.3 0-.8-.6-.6-.6.1-1.2.4-1.7.4-1.1 0-2.3.4-3.6.5zM87 58.8c-1.8-.7-3.5-1.5-5.3-2.2-.6-.3-.5.3-.7.5-.1.2-.4.5.1.7.6.2 1.1.5 1.7.7.2.1.4.1.4.4-.2.4-.4.8-.5 1.3-.1.3-.3.3-.6.2-.5-.2-1.1-.4-1.7-.7-.5-.2-.6.1-.7.4-.1.3-.5.6.1.8 1.8.7 3.5 1.4 5.2 2.2.7.3.5-.3.7-.6.2-.3.3-.6-.2-.7-.6-.1-1.1-.5-1.7-.7-.4-.2-.3-.4-.1-.6.3-.4.1-1.2.9-1.3.1 0 .2.1.4.1.5.2.9.4 1.3.6.4.2.6-.1.6-.4.3-.1.8-.4.1-.7zM78.3 22.7c-.8.7-1 1.9-.4 2.9.5 1 1.8 1.5 2.7 1.1 1.1-.5 2.2-1 3.1-2 .6-1.7.3-2.7-1.3-3.6-.5-.1-1-.2-1.4 0-1 .4-1.9.9-2.7 1.6zm3.4-.2c.4 0 .7.2.9.6.2.4.1.7-.1 1-.6.7-1.5 1.2-2.4 1.4-.4.1-.7-.1-1-.4-.2-.3-.3-.7 0-1 .6-.9 1.6-1.4 2.6-1.6zM88.8 46.7c-1.6-.2-3.2-.4-4.9-.5-.3 0-.8-.2-.8.4 0 .4-.2 1 .6.9.1 0 .2.1.2.1H84.2c1.6 0 1.8.4 1.3 1.9-.1.2-.2.3-.4.2-.6-.1-1.2-.2-1.8-.2h-.1c-.4 0-.5.2-.5.5v.8c1.9.2 3.8.4 5.7.7.5.1.7 0 .8-.6.1-.5-.1-.8-.6-.8-.2 0-.4 0-.5-.1-1.5-.1-1.4-.1-1.3-1.5.1-.6.3-.7.7-.6.2.1.5.1.7.1 1.2.1 1.2.1 1.3-1.1-.2-.2-.5-.1-.7-.2zM16.4 67.7c-.2-.1-.3-.2-.3-.4-.2-.1-.3-.2-.3-.4-.5-.6-1-1.2-1.3-1.9-.4-.4-.8-.4-1.2.1-.2.2 0 .4.1.5.4.6.8 1.2 1.2 1.7.2.3.2.4-.1.6-.8.7-.8.7-1.4-.2-.2-.3-.4-.5-.5-.8-.3-.5-.6-.5-1-.1-.3.2-.3.4-.1.7.3.4.5.7.8 1.1.1.2.5.4.3.6-.2.3-.6.5-1 .7-.2.1-.2-.1-.3-.3-.3-.4-.6-.9-.9-1.3-.6-.8-.6-.8-1.3-.3-.2.2-.2.3 0 .5.3.4.5.7.8 1.1.4.6.9 1.1 1.3 1.7.2.4.4.3.7.1 1.1-.8 2.1-1.5 3.2-2.3 0 0 .1 0 .1-.1l1.2-.9c.1.1.1-.1 0-.4 0 .1 0 0 0 0zM16.1 67.3zM75.6 19.8c-.5-.5-.9-1-1.4-1.6-.1-.1-.3-.2-.2-.4.3-.3.5-.6.9-.8.3-.1.4.3.6.4.3.3.6.7.9 1 .2.3.4.4.7.1.2-.3.7-.4.2-.8-.4-.4-.7-.8-1.1-1.2-.5-.5.2-.6.4-.9.2-.3.4-.4.7 0 .4.6.9 1.1 1.4 1.6.4.5.6-.1.8-.2.3-.2.4-.3.1-.6-.8-.9-1.5-1.7-2.3-2.6-.3-.3-.5-.3-.7 0-.6.5-1.2 1.1-1.9 1.6-.1.1-.2.2-.3.2-.6.5-1.2 1.1-1.8 1.6-.5.4-.4.7-.1 1.1l2.1 2.4c.4.5.6.1.9-.1.3-.3.3-.5.1-.8zM7.8 43zM5 43.5zM7.8 43h-.1c-1.1 0-1.1 0-1.1 1.1v1.5c0 .4-.1.5-.5.5-1.1 0-.9.2-1-.9 0-.5.1-1.1-.1-1.6-1.1.1-1.1.1-1.1 1.2v.5c0 1 0 .9-.9.9-.4 0-.5-.2-.5-.5 0-.6-.1-1.2 0-1.7 0-.6-.1-.9-.8-.8h-.3c0 .1-.1.1-.1.2 0 1.3.1 2.6.1 3.9 0 .4.3.3.5.3 2-.1 4-.2 6-.2-.1-1.5-.1-2.9-.1-4.4zM53.2 7.2c.9.3.9.3 1.2-.6.1-.4.1-1 .4-1.3.4-.3.9.1 1.4.2 1.3.2 2.5-.7 2.5-2 0-.9-.4-1.6-1.3-1.9-.8-.3-1.6-.5-2.4-.7-.3-.1-.4 0-.5.3-.5 1.8-1 3.7-1.5 5.5-.1.3-.1.4.2.5zm2.6-4.8c.8-.1 1.5.5 1.5 1s-.3.9-.8.8c-.5-.1-1.2.1-1.3-.5 0-.4 0-1.2.6-1.3zM84.2 64.6c-.2-.1-.4-.1-.7-.1-.6 0-1.2 0-1.7.1-.4 0-.6-.1-.7-.4l-.9-1.8c-.4-.7-.9-.7-1.3 0-.5.9-1 1.9-1.7 2.7-.3.4-.1.5.2.7.3.2.6.5.9-.1.4-.6.7-1.3 1.2-1.9.3.5.5 1 .7 1.5.2.5.4.7 1 .6.5-.1 1.1 0 1.7 0-.4.7-.7 1.3-1.1 1.9-.4.6.2.6.4.8.3.3.5.2.7-.2.5-.9 1.1-1.8 1.7-2.7.3-.7.3-.8-.4-1.1zM89 40.5c-1.7.1-3.5.2-5.2.2-.7 0-.9.2-.7.8v.3c-.1.3.1.3.3.3h1.1c.9 0 .9 0 1 .9 0 .2 0 .4.1.7.1.8.8 1.5 1.6 1.6.9.1 1.8-.2 2.2-1 .3-.5.3-1.1.2-1.7v-.3-1.2c.1-.5-.1-.6-.6-.6zm-1.4 1.4c.5-.1.9-.1.9.7 0 1-.1 1.3-.8 1.3-.7 0-.9-.3-.9-1.4-.1-.8.5-.5.8-.6zM88.6 52.9c-.6-.2-.9-.1-.9.5 0 .2-.1.3-.1.5 0 .4-.2.5-.6.4-1.4-.3-2.8-.8-4.3-1-.8-.1-.5.4-.7.7-.2.4.1.5.4.5 1.3.3 2.5.6 3.8.9.9.2.9.2.7 1.2-.2.8-.1.9.6.9.3.1.4-.1.4-.3.3-1.3.6-2.5 1-3.8.1-.3-.1-.4-.3-.5zM8.9 66.4s0-.1-.1-.1c-.3-.4-.2-.6.2-.8 1-.6 2-1.2 3.1-1.8 1-.6 1-.6.5-1.6-.2-.2-.4 0-.6.1-1.1.6-2.2 1.3-3.3 1.9-.9.5-.9.5-1.4-.4-.1-.2-.2-.7-.6-.4-.4.2-.8.4-.4.9.4.6.8 1.2 1.1 1.9.2.1.3.3.3.5.1.1.2.2.2.4.4.6.7.8 1.2.4s-.2-.7-.2-1zM82.3 28.6c-.7.3-1.5.6-2.2.9 0 .1.1.3.1.4.1.6.4.9 1.1.6.9-.4 1.8-.9 2.8-.7 1 .2 2 .2 3 .4 0-.1.1 0 .1 0 .1-.4-.2-.7-.3-1-.1-.1-.2-.2-.2-.4-.9-.1-1.7 0-2.6-.2.4-.5.8-1 1.3-1.3.8-.6.3-1.2.1-1.8h-.1c-.8.7-1.4 1.5-2.1 2.3-.4.2-.6.6-1 .8zM8.5 61.3c.8-.1 1.5-.1 2.3-.2 1.2-.1 1.2-.1.8-1.2v-.1c-.3-.1-.7 0-1 0-.2 0-.4.1-.6-.1-.3-.3-.3-.7-.5-1.1-.3-.4-.3-.8.2-1 .8-.4.5-1 .2-1.5-.1-.3-.3-.3-.5-.1-1.1 1-2.2 2-3.1 3.1h.2-.2l-.7.7c-.7.5-.9 1-.4 1.7.8 0 1.7-.1 2.5-.1.1 0 .5 0 .8-.1zm-.7-1.1zm0 .1zm.5-1.5c.3.4.5.8.5 1.3-.3.1-.7 0-1 .2-.3-.1-.7.3-1-.2.1-.1.2-.2.4-.3l.1-.1c.3-.4.7-.6 1-.9zm-1.4 1.6h-.1.1zm.1 0c-.1 0-.1 0 0 0-.1 0-.1 0 0 0zM1.8 41.9c1.8.1 3.7.2 5.5.3.4 0 .6-.1.5-.5 0-.3.3-.9-.5-.9-.9 0-1.9-.1-3.1-.2-.5 0-1.4-.1-2.3-.2-.5-.1-.6.2-.6.6 0 .4-.2.9.5.9zM8.2 52.8c.2 0 .6 0 .5-.4-.1-.4.2-1-.5-1-.5.1-.9.2-1.4.3-.5.1-.7-.1-.8-.6-.1-.8-.3-1.5-1-1.9-.4-.2-.9-.5-1.4-.2h-.4c-.6 0-.9.4-1.1.9-.3.6-.2 1.2-.2 1.8.2.7.3 1.4.4 2.2 1.5-.1 2.9-.4 4.4-.8.6-.1 1-.2 1.5-.3zm-4.7-.5h-.1l-.1-.1c-.1-.4 0-.9-.1-1.3-.1-.3.3-.4.2-.7.1.1.3 0 .4 0 .7-.1.9.1 1.1.8.4 1-.3 1.1-.9 1.3h-.5zm2.7.5s0-.1 0 0c0-.1 0 0 0 0zm.4.2h-.1.1zm.1 0zm-.5-.2c0 .1.1.1 0 0 .1.1 0 .1 0 0zm.1.1zm.2.1c-.1 0-.1 0 0 0-.1 0-.1 0 0 0zm.1 0h0zM57.5 7.6c-.5.5-.5.5.3.8l.1-.1-.1.1c.6.5.8-.1 1.2-.4.1-.3.4-.4.7-.3.5.3 1 .5 1.5.6V9c-.1.6 0 .9.6 1.1h.1c.4.2.6.1.6-.4 0-1.2.1-2.4.2-3.7v-.5c.2-.7 0-1.4.2-2.1-1-.6-1-.6-1.7.2-.2.3-.3.4-.4.5-.6.6-1.1 1.3-1.7 1.9-.1 0-.1.1-.1.1l-1.5 1.5zm.7-.3l-.1.1.1-.1zm2-.8l.3-.3c.3-.3.6-.7 1.1-1.2-.1.8-.1 1.4-.2 2 0 .1-.1.2-.1.2-.3 0-.6-.2-.9-.3-.4-.1-.2-.3-.2-.4zm.3-.3zm1.9.4c0-.1 0-.1 0 0 0-.1 0-.1 0 0zM2.2 37.3c.3.1.6.4 1 .5.2.2.5.4.8.5v-.1.1h.1c1.1.6 2.2 1.2 3.3 1.9.1.1.2.2.4.1s.2-1.3 0-1.4c-1-.3-1.1-1-.8-1.8v-.3c.1-.5.4-.6.8-.5.6-.1.8-.4.9-1 .1-.6-.1-.6-.6-.5-.6.1-1.3.2-1.9.4-1.3.3-2.6.5-3.8.8-.4-.1-.5 0-.5.4-.2.4-.1.7.3.9zm1 .5zm.5 0zm.2.1zm-.1 0s0-.1 0 0c0-.1 0 0 0 0zm0-.1zm-.1 0zm.2.1zm.1.2zm0 0s0-.1 0 0c0-.1 0 0 0 0zm0-.1zm-.2-1.3l2.1-.3c.1.5 0 .9-.3 1.4-.2-.1-.3-.2-.5-.3 0 0-.1-.1-.1 0-.4-.3-.8-.5-1.3-.7l.1-.1zm-.2 1.1zm-.1 0zm0 0zM81.4 18.8l-.6-.9c-.2-.2-.3 0-.5.1-1.5 1.1-3.1 2.2-4.6 3.3-.2.1-.3.2-.2.5.3.8.7.9 1.3.3.1 0 .1-.1.2-.1 1.5-.9 2.8-1.9 4.2-2.9.1 0 .2-.1.2-.3zM9.4 54.4c-.1-.4-.2-.6-.8-.5-1.6.5-3.3 1-4.9 1.4-.8.2-.8.2-.6 1.1.2.7.6.2.9.3 1.6-.6 3.3-1 5-1.4.6-.2.5-.5.4-.9zM71.5 45.7c-.8-4.2-2.8-7.7-5.9-10.6-3.3-3.1-7.3-4.8-11.8-5.3-1.4-.1-2.8-.1-4.3 0-1.2.1-2.5.3-3.7.7-3.7 1-7 2.7-10 5.2 2.9-.5 5.8-.7 8.6-.1 2.6.4 5 1.3 7.2 2.6l.1.1c.1.1.2.1.3.2.5.2 1 .5 1.4.9 1.4.9 2.6 2 3.6 3.3 0 .1.1.1.1.2.3.3.6.6.8 1 .7.7 1.1 1.6 1.6 2.4 1 2.1 1.8 4.2 2.2 6.5.3 1.9.3 3.7.2 5.6v.4c-.3 1.6-.6 3.1-1.1 4.7-.9 2.1-1.9 4.1-3.3 5.9v.2c-.4.2-.6.5-.9.9.4 0 .6-.1.9-.3.5-.3 1.1-.4 1.6-.7 2.5-1.1 4.8-2.6 6.8-4.4l.3-.3 2.1-2.4c0-.1.1-.2.1-.2 2-2.8 3.1-6 3.3-9.4.2-1.5.2-3 0-4.6.1-1.1-.1-1.8-.2-2.5zm-10.3 17c0-.1 0-.1 0 0 0-.1 0-.1 0 0zM61.8 19.8l-.2-.2c-.1 0-.2-.1-.3-.2-.3-.1-.5-.3-.8-.4-2-1-4.3-.5-5.8 1.2-1.4 1.6-1.5 4-.3 5.8 1.1 1.6 3.1 2.4 5 2 2-.5 3.4-2 3.7-4.2.2-1.7-.3-2.9-1.3-4z"/></g></svg>