<?xml version="1.0" encoding="utf-8"?>
<!-- Generator: Adobe Illustrator 24.2.1, SVG Export Plug-In . SVG Version: 6.00 Build 0)  -->
<svg version="1.1" id="Layer_1" xmlns="http://www.w3.org/2000/svg" xmlns:xlink="http://www.w3.org/1999/xlink" x="0px" y="0px"
	 width="320px" height="320px" viewBox="0 0 320 320" style="enable-background:new 0 0 320 320;" xml:space="preserve">
<style type="text/css">
	.st0{fill-rule:evenodd;clip-rule:evenodd;fill:#2AB8DD;}
	.st1{fill:#E52526;}
	.st2{fill:#005EA6;}
	.st3{fill-rule:evenodd;clip-rule:evenodd;fill:#005EA6;}
</style>
<path class="st0" d="M111,111.6c15.7-13.5,32.9-22.6,52.3-28c-12-4.3-24.1-7-36.6-6.5h-11c-4.7,1.1-8.9,2.7-14.1,2.7
	c-2.1,2.2-5.2,2.7-7.8,3.2c-7.3,2.7-14.1,6.5-20.9,10.2c-0.5,0.5-1.6,0.5-2.1,0.5c0,1.6-1.6,1.6-2.6,1.6
	c-7.8,5.9-16.2,12.4-22.5,19.9c-7.3,9.2-13.1,18.8-17.8,29.6c-3.7,9.2-6.3,18.8-7.3,28.5c-1,12.4-0.5,25.3,2.1,37.7
	c2.6,11.3,7.3,21.5,12.5,31.8c2.6,5.4,6.8,9.7,9.9,15.1c3.7,2.2,5.8,5.9,8.4,8.6c9.4,10.2,20.4,18.3,32.4,24.8
	c1.6,0.5,3.1,1.6,4.2,3.2c2.6,0.5,4.7,2.2,6.8,3.2c1.6-0.5,3.1,2.2,4.2,0.5s-1-2.7-2.1-3.8c-3.7-3.8-6.3-8.6-8.9-13.5
	c-8.9-14-14.1-30.7-15.7-48.5c-1.6-15.1-0.5-30.2,4.2-45.2c2.6-8.1,5.8-15.1,9.4-22.6c5.8-11.3,13.6-21,23-29.1
	c5.8-5.4,12-9.7,18.8-13.5c8.4-4.8,17.3-8.6,26.7-11.3C141.3,107.8,126.1,108.9,111,111.6L111,111.6z M95.3,72.2
	c13.1,0,26.1-12.4,25.1-25.9c0.5-15.6-12-26.4-25.1-25.9c-13.6,0-24.6,11.3-24.6,25.3C69.7,59.3,81.2,71.7,95.3,72.2z"/>
<path class="st1" d="M165.9,276.4c7.3-3.8,13.1-9.7,18.3-16.2c1.6-1.6,2.1-2.2,3.7,0c3.1,5.4,6.8,10.8,11.5,15.1
	c6.8,6.5,13.6,5.9,20.4,0c3.7-3.2,6.3-7.5,8.9-11.3c0.5-1.1,1.6-2.2,1-2.7c-0.5-1.1-2.1,0-3.1,0c-3.1,1.1-5.8,1.6-8.9,1.1
	c-6.3-1.1-8.9-6.5-10.5-11.8c-4.2-14.5-3.1-30.2-2.6-45.2c0.5-15.1,1.6-29.6,3.7-44.2c0.5-2.7-0.5-3.2-2.6-2.7
	c-5.2,1.1-8.4,4.8-11,9.2c-2.6,3.8-4.2,8.1-6.3,12.9c-4.2-5.4-7.8-10.8-12.5-15.6c-6.3-5.9-13.1-9.2-21.4-9.2
	c-15.7,0.5-27.7,7.5-36.1,20.5c-15.7,23.7-18.8,49.5-9.9,76.5C116.7,277.4,144.4,288.2,165.9,276.4z M123.5,212.8
	c0.5-12.9,3.7-25.9,12-36.1c4.7-5.9,10.5-9.7,17.8-10.8c7.3-1.1,13.1,1.6,17.8,7.5c2.6,3.2,4.2,7,5.8,10.8s3.1,8.1,3.1,12.4
	c0.5,0.5,0.5,1.1,0.5,2.2c2.1,16.7,1.6,32.3-4.2,47.4c-1.6,4.8-4.2,9.2-7.8,12.9c-10.5,10.8-26.7,9.2-35.6-4.3
	C124.6,241.9,122.5,227.9,123.5,212.8z"/>
<g>
	<path class="st2" d="M246.4,25.9c-0.5,0-1-0.5-1.6-1.1c-1.6-0.5-2.6-1.6-4.2-2.2c-10.5-5.4-22.5-2.7-30.3,6.5
		c-7.3,8.6-7.8,21.5-1.6,31.2c5.8,8.6,16.2,12.9,26.1,10.8c10.5-2.7,17.8-10.8,19.3-22.6c1-9.2-1.6-15.6-6.8-21.5L246.4,25.9z"/>
	<path class="st2" d="M298.2,166.5c-4.2-22.6-14.6-41.5-30.9-57.1c-17.3-16.7-38.2-25.9-61.7-28.5c-7.3-0.5-14.6-0.5-22.5,0
		c-6.3,0.5-13.1,1.6-19.3,3.8c-19.3,5.4-36.6,14.5-52.3,28c15.2-2.7,30.3-3.8,45-0.5c13.6,2.2,26.1,7,37.6,14l0.5,0.5
		c0.5,0.5,1,0.5,1.6,1.1c2.6,1.1,5.2,2.7,7.3,4.8c7.3,4.8,13.6,10.8,18.8,17.8c0,0.5,0.5,0.5,0.5,1.1c1.6,1.6,3.1,3.2,4.2,5.4
		c3.7,3.8,5.8,8.6,8.4,12.9c5.2,11.3,9.4,22.6,11.5,35c1.6,10.2,1.6,19.9,1,30.2v2.2c-1.6,8.6-3.1,16.7-5.8,25.3
		c-4.7,11.3-9.9,22.1-17.3,31.8v1.1c-2.1,1.1-3.1,2.7-4.7,4.8c2.1,0,3.1-0.5,4.7-1.6c2.6-1.6,5.8-2.2,8.4-3.8
		c13.1-5.9,25.1-14,35.6-23.7l1.6-1.6l11-12.9c0-0.5,0.5-1.1,0.5-1.1c10.5-15.1,16.2-32.3,17.3-50.6c1-8.1,1-16.2,0-24.8
		C299.7,174,298.7,170.3,298.2,166.5z"/>
	<path class="st3" d="M244.3,258C244.3,257.5,244.3,257.5,244.3,258C244.3,257.5,244.3,257.5,244.3,258z"/>
</g>
</svg>
